<?xml version="1.0" encoding="utf-8"?>
<!-- Generator: Adobe Illustrator 14.0.0, SVG Export Plug-In  -->
<!DOCTYPE svg PUBLIC "-//W3C//DTD SVG 1.1//EN" "http://www.w3.org/Graphics/SVG/1.1/DTD/svg11.dtd" [
	<!ENTITY ns_flows "http://ns.adobe.com/Flows/1.0/">
]>
<svg version="1.1"
	 xmlns="http://www.w3.org/2000/svg" xmlns:xlink="http://www.w3.org/1999/xlink" xmlns:a="http://ns.adobe.com/AdobeSVGViewerExtensions/3.0/"
	 x="0px" y="0px" width="357px" height="67px" viewBox="-0.9 -0.1 357 67" enable-background="new -0.9 -0.1 357 67"
	 xml:space="preserve">
<defs>
</defs>
<g>
	<g>
		<path fill="#004C97" d="M79.6,15.9h10.3V19h-6.4v8.9h6.2v3.2h-6.2v12.8h-3.9V15.9z"/>
		<path fill="#004C97" d="M102.8,39.4c0,1.4-0.2,2.4-0.5,3c-0.6,1.3-2.1,1.9-4.4,1.9c-3.7,0-5.2-1.4-5.2-4.9V29.1
			c0-3.5,1.5-4.9,5.2-4.9c2.2,0,3.6,0.6,4.3,1.9c0.4,0.7,0.6,1.9,0.6,3v6.2h-6.5v4.1c0,1.8,0.4,2.5,1.5,2.5c1,0,1.4-0.5,1.4-1.9
			v-2.2h3.5V39.4z M99.3,32.7v-4.1c0-1.2-0.5-1.8-1.4-1.8s-1.5,0.8-1.5,2.2v3.7H99.3z"/>
		<path fill="#004C97" d="M106,24.6h3.5v1.1c1.1-1.2,1.5-1.4,3.2-1.5v3.6c-0.2,0-0.5,0-0.6,0c-1.6,0-2.4,0.9-2.4,2.7v13.3H106V24.6z
			"/>
		<path fill="#004C97" d="M115.6,24.6h3.6v1c0.9-1,1.8-1.4,3.1-1.4c2.3,0,3.5,1.4,3.5,4.3v15.3h-3.7V28.8c0-1.3-0.4-1.9-1.3-1.9
			c-0.9,0-1.5,0.7-1.5,1.8v15.2h-3.7V24.6z"/>
		<path fill="#004C97" d="M141.5,38.1c0,4.1-2.1,6.1-6.2,6.1c-2.6,0-4.7-0.9-5.6-2.6c-0.5-0.9-0.8-2.1-0.8-3.5V15.9h3.9V38
			c0,2.2,0.7,3.1,2.4,3.1c1.7,0,2.5-0.9,2.5-3.1V15.9h3.9V38.1z"/>
		<path fill="#004C97" d="M144.7,24.6h3.6v1c0.9-1,1.8-1.4,3.1-1.4c2.3,0,3.5,1.4,3.5,4.3v15.3h-3.7V28.8c0-1.3-0.4-1.9-1.3-1.9
			c-0.9,0-1.5,0.7-1.5,1.8v15.2h-3.7V24.6z"/>
		<path fill="#004C97" d="M158.1,15.9h3.7v3.5h-3.7V15.9z M158.1,24.6h3.7v19.2h-3.7V24.6z"/>
		<path fill="#004C97" d="M168.5,24.6l1.4,9.1l0.1,0.8c0.4,2.8,0.4,3,0.8,5.3c0.3-1.6,0.5-2.8,0.6-3.6l0.1-0.8l0.2-0.8l0.1-0.8
			l1.5-9.1h3.7l-4,19.2h-4.4l-4-19.2H168.5z"/>
		<path fill="#004C97" d="M189.6,39.4c0,1.4-0.2,2.4-0.5,3c-0.6,1.3-2.1,1.9-4.4,1.9c-3.7,0-5.2-1.4-5.2-4.9V29.1
			c0-3.5,1.5-4.9,5.2-4.9c2.2,0,3.6,0.6,4.3,1.9c0.4,0.7,0.6,1.9,0.6,3v6.2h-6.5v4.1c0,1.8,0.4,2.5,1.5,2.5c1,0,1.4-0.5,1.4-1.9
			v-2.2h3.5V39.4z M186.1,32.7v-4.1c0-1.2-0.5-1.8-1.4-1.8s-1.5,0.8-1.5,2.2v3.7H186.1z"/>
		<path fill="#004C97" d="M192.8,24.6h3.5v1.1c1.1-1.2,1.5-1.4,3.2-1.5v3.6c-0.2,0-0.5,0-0.6,0c-1.6,0-2.4,0.9-2.4,2.7v13.3h-3.7
			V24.6z"/>
		<path fill="#004C97" d="M208.5,28.7c0-1.4-0.4-2.1-1.3-2.1c-0.8,0-1.3,0.7-1.3,2.1c0,1.4,0.4,2.1,2,3.5c3.5,2.9,4,3.9,4,6.8
			c0,3.8-1.4,5.3-5.1,5.3c-2.2,0-3.8-0.6-4.3-1.7c-0.3-0.6-0.5-1.6-0.5-2.6v-2.2h3.5v1.8c0,1.7,0.4,2.3,1.4,2.3c1,0,1.4-0.8,1.4-2.6
			c0-1.7-0.5-2.5-2.2-4c-3.3-2.7-3.9-3.7-3.9-6.2c0-1.6,0.5-3,1.3-3.8c0.8-0.8,1.8-1.1,3.6-1.1c3.3,0,4.6,1.2,4.6,4v2.4h-3.3V28.7z"
			/>
		<path fill="#004C97" d="M214.9,15.9h3.7v3.5h-3.7V15.9z M214.9,24.6h3.7v19.2h-3.7V24.6z"/>
		<path fill="#004C97" d="M221.4,24.6h1.7v-3.8l3.7-1.4v5.2h2.2v2.7h-2.2v12.1c0,1.4,0.4,1.9,1.6,1.9c0.2,0,0.3,0,0.7-0.1v2.6h-0.5
			l-0.4,0c-0.9,0-1.3,0-1.7,0c-2.5,0-3.3-1-3.3-3.7V27.3h-1.7V24.6z"/>
		<path fill="#004C97" d="M238.5,42.7c-1,1.2-1.8,1.6-3.1,1.6c-1.4,0-2.5-0.5-3-1.4c-0.4-0.7-0.6-2-0.6-3.6c0-4.3,0.4-5.6,2.1-6.6
			c0.8-0.5,1.8-0.7,3.1-0.7h1.4v-3.1c0-1.4-0.5-2-1.4-2c-0.8,0-1.3,0.6-1.3,1.7V30h-3.7v-0.9c0-3.4,1.5-4.9,5.2-4.9
			c3.4,0,4.8,1.4,4.8,4.9v14.8h-3.6V42.7z M233,15.9h3.2v3.4H233V15.9z M238.5,34.4c-2.8,0.1-3.1,0.5-3.1,4.5c0,2.3,0.3,2.9,1.6,2.9
			c1,0,1.5-0.6,1.5-1.9V34.4z M237.9,15.9h3.3v3.4h-3.3V15.9z"/>
		<path fill="#004C97" d="M245,24.6h1.7v-3.8l3.7-1.4v5.2h2.2v2.7h-2.2v12.1c0,1.4,0.4,1.9,1.6,1.9c0.2,0,0.3,0,0.7-0.1v2.6h-0.5
			l-0.4,0c-0.9,0-1.3,0-1.7,0c-2.5,0-3.3-1-3.3-3.7V27.3H245V24.6z"/>
		<path fill="#004C97" d="M262.1,15.9h3.7v3.5h-3.7V15.9z M262.1,24.6h3.7v19.2h-3.7V24.6z"/>
		<path fill="#004C97" d="M269,24.6h3.6v1c0.9-1,1.8-1.4,3.1-1.4c2.3,0,3.5,1.4,3.5,4.3v15.3h-3.7V28.8c0-1.3-0.4-1.9-1.3-1.9
			s-1.5,0.7-1.5,1.8v15.2H269V24.6z"/>
		<path fill="#004C97" d="M289.2,15.9h3.9v11.7h4.8V15.9h3.9v28h-3.9V30.7h-4.8v13.1h-3.9V15.9z"/>
		<path fill="#004C97" d="M311.5,42.7c-1,1.2-1.8,1.6-3.1,1.6c-1.4,0-2.5-0.5-3-1.4c-0.4-0.7-0.6-2-0.6-3.6c0-4.3,0.4-5.6,2.1-6.6
			c0.8-0.5,1.8-0.7,3.1-0.7h1.4v-3.1c0-1.4-0.5-2-1.4-2c-0.8,0-1.3,0.6-1.3,1.7V30h-3.7v-0.9c0-3.4,1.5-4.9,5.2-4.9
			c3.4,0,4.8,1.4,4.8,4.9v14.8h-3.6V42.7z M311.4,34.4c-2.8,0.1-3.1,0.5-3.1,4.5c0,2.3,0.3,2.9,1.6,2.9c1,0,1.5-0.6,1.5-1.9V34.4z"
			/>
		<path fill="#004C97" d="M325.1,42.8c-0.9,1.1-1.9,1.6-3.2,1.6c-2.4,0-3.6-1.4-3.6-4.3V28.4c0-2.9,1.2-4.3,3.7-4.3
			c1.4,0,2.1,0.4,3.2,1.6v-1.1h3.5v21.8c0,3.3-1.3,4.6-5,4.6c-3.8,0-5-1.1-5-4.4v-0.9h3.6v1c0,1.3,0.4,1.9,1.3,1.9
			c0.9,0,1.4-0.6,1.4-1.9V42.8z M325.1,29.4c0-1.7-0.5-2.5-1.6-2.5c-1.1,0-1.5,0.8-1.5,2.5v10c0,1.8,0.5,2.5,1.6,2.5
			c1.1,0,1.5-0.8,1.5-2.5V29.4z"/>
		<path fill="#004C97" d="M342.1,39.4c0,1.4-0.2,2.4-0.5,3c-0.6,1.3-2.1,1.9-4.4,1.9c-3.7,0-5.2-1.4-5.2-4.9V29.1
			c0-3.5,1.5-4.9,5.2-4.9c2.2,0,3.6,0.6,4.3,1.9c0.4,0.7,0.6,1.9,0.6,3v6.2h-6.5v4.1c0,1.8,0.4,2.5,1.5,2.5c1,0,1.4-0.5,1.4-1.9
			v-2.2h3.5V39.4z M338.6,32.7v-4.1c0-1.2-0.5-1.8-1.4-1.8c-1,0-1.5,0.8-1.5,2.2v3.7H338.6z"/>
		<path fill="#004C97" d="M345.3,24.6h3.6v1c0.9-1,1.8-1.4,3.1-1.4c2.3,0,3.5,1.4,3.5,4.3v15.3h-3.7V28.8c0-1.3-0.4-1.9-1.3-1.9
			c-0.9,0-1.5,0.7-1.5,1.8v15.2h-3.7V24.6z"/>
	</g>
</g>
<path fill-rule="evenodd" clip-rule="evenodd" fill="#004C97" stroke="#004C97" stroke-width="0.2395" stroke-miterlimit="22.9256" d="
	M63.6,9.2v21.4c0,15.5-12.6,28.1-28.1,28.1c-15.5,0-28.1-12.6-28.1-28.1l0-21.5C8.2,8,9.1,6.9,10.1,5.9l0,24.7
	c0,14,11.3,25.3,25.3,25.3s25.3-11.3,25.3-25.3V5.9C61.8,6.9,62.7,8,63.6,9.2z"/>
<path fill-rule="evenodd" clip-rule="evenodd" fill="#004C97" stroke="#004C97" stroke-width="0.2395" stroke-miterlimit="22.9256" d="
	M14.6,30.6V2.1c0.9-0.7,1.8-1.3,2.8-1.9l0,30.4c0,10,8.1,18,18.1,18s18.1-8.1,18.1-18V0.2c1,0.6,1.9,1.2,2.8,1.9v28.5
	c0,11.5-9.4,20.9-20.9,20.9S14.6,42.1,14.6,30.6z"/>
<path fill-rule="evenodd" clip-rule="evenodd" fill="#004C97" stroke="#004C97" stroke-width="0.2395" stroke-miterlimit="22.9256" d="
	M68,30.6V16.8c1.8,4.3,2.8,8.9,2.8,13.9c0,19.5-15.8,35.3-35.3,35.3S0.1,50.1,0.1,30.6c0-5,1-9.7,2.8-13.9v13.9
	c0,17.9,14.6,32.5,32.5,32.5S67.9,48.6,68,30.6z"/>
<radialGradient id="SVGID_1_" cx="30.3931" cy="25.1567" r="16.2518" gradientUnits="userSpaceOnUse">
	<stop  offset="0" style="stop-color:#FFFFFF"/>
	<stop  offset="0.1702" style="stop-color:#C6D7E8"/>
	<stop  offset="0.3969" style="stop-color:#80A6CB"/>
	<stop  offset="0.6015" style="stop-color:#497FB5"/>
	<stop  offset="0.7765" style="stop-color:#2163A5"/>
	<stop  offset="0.9151" style="stop-color:#09529B"/>
	<stop  offset="1" style="stop-color:#004C97"/>
</radialGradient>
<path fill-rule="evenodd" clip-rule="evenodd" fill="url(#SVGID_1_)" d="M35.7,44.3c7.6,0,13.9-6.2,13.9-13.9
	c0-7.6-6.2-13.9-13.9-13.9s-13.9,6.2-13.9,13.9C21.8,38.1,28,44.3,35.7,44.3z"/>
</svg>
